<svg width="140" height="24" viewBox="0 0 140 24" fill="none" xmlns="http://www.w3.org/2000/svg">
<circle cx="8.5" cy="12" r="8" stroke="#333333"/>
<path d="M25.84 18.58C26.5867 18.58 27.2 18.46 27.68 18.22C28.1733 17.9667 28.42 17.5467 28.42 16.96C28.42 16.68 28.3733 16.44 28.28 16.24C28.2 16.04 28.06 15.86 27.86 15.7C27.66 15.54 27.3933 15.3867 27.06 15.24C26.74 15.0933 26.34 14.92 25.86 14.72C25.4733 14.56 25.1067 14.4 24.76 14.24C24.4133 14.0667 24.1067 13.8733 23.84 13.66C23.5733 13.4333 23.36 13.1667 23.2 12.86C23.04 12.5533 22.96 12.18 22.96 11.74C22.96 10.9 23.2733 10.22 23.9 9.7C24.54 9.18 25.4133 8.92 26.52 8.92C27.2267 8.92 27.8067 8.98 28.26 9.1C28.7267 9.22 29.0533 9.32667 29.24 9.42L28.94 10.58C28.78 10.5 28.5067 10.3933 28.12 10.26C27.7467 10.1267 27.1933 10.06 26.46 10.06C26.1667 10.06 25.8867 10.0933 25.62 10.16C25.3667 10.2133 25.14 10.3067 24.94 10.44C24.74 10.56 24.58 10.72 24.46 10.92C24.34 11.1067 24.28 11.34 24.28 11.62C24.28 11.9 24.3333 12.14 24.44 12.34C24.5467 12.54 24.7 12.72 24.9 12.88C25.1133 13.0267 25.3667 13.1667 25.66 13.3C25.9667 13.4333 26.3133 13.58 26.7 13.74C27.1 13.9 27.48 14.0667 27.84 14.24C28.2133 14.4 28.54 14.6 28.82 14.84C29.1 15.0667 29.3267 15.3467 29.5 15.68C29.6733 16 29.76 16.4067 29.76 16.9C29.76 17.8333 29.4067 18.54 28.7 19.02C28.0067 19.5 27.0533 19.74 25.84 19.74C24.9333 19.74 24.24 19.66 23.76 19.5C23.28 19.3533 22.96 19.24 22.8 19.16L23.14 17.98C23.18 18.0067 23.2667 18.0533 23.4 18.12C23.5333 18.1733 23.7133 18.24 23.94 18.32C24.1667 18.3867 24.4333 18.4467 24.74 18.5C25.06 18.5533 25.4267 18.58 25.84 18.58ZM33.5747 19.5H32.2747V9.16H33.5747V19.5ZM33.8747 6.04C33.8747 6.34667 33.7814 6.59333 33.5947 6.78C33.408 6.95333 33.1814 7.04 32.9147 7.04C32.648 7.04 32.4214 6.95333 32.2347 6.78C32.048 6.59333 31.9547 6.34667 31.9547 6.04C31.9547 5.73333 32.048 5.49333 32.2347 5.32C32.4214 5.13333 32.648 5.04 32.9147 5.04C33.1814 5.04 33.408 5.13333 33.5947 5.32C33.7814 5.49333 33.8747 5.73333 33.8747 6.04ZM37.0208 9.52C37.4074 9.41333 37.9074 9.29333 38.5208 9.16C39.1474 9.02667 39.9541 8.96 40.9408 8.96C42.2474 8.96 43.1941 9.34 43.7808 10.1C43.8474 10.0467 43.9741 9.96 44.1608 9.84C44.3608 9.70667 44.6074 9.57333 44.9008 9.44C45.1941 9.30667 45.5341 9.19333 45.9208 9.1C46.3208 9.00667 46.7608 8.96 47.2408 8.96C48.0274 8.96 48.6608 9.08 49.1408 9.32C49.6341 9.54667 50.0141 9.87333 50.2808 10.3C50.5474 10.7133 50.7274 11.2133 50.8208 11.8C50.9141 12.3867 50.9608 13.0267 50.9608 13.72V19.5H49.6608V14.14C49.6608 13.46 49.6274 12.8733 49.5608 12.38C49.5074 11.8733 49.3874 11.46 49.2008 11.14C49.0274 10.8067 48.7741 10.56 48.4408 10.4C48.1074 10.2267 47.6741 10.14 47.1408 10.14C46.7408 10.14 46.3741 10.18 46.0408 10.26C45.7208 10.3267 45.4408 10.4133 45.2008 10.52C44.9608 10.6267 44.7608 10.7333 44.6008 10.84C44.4541 10.9467 44.3474 11.0267 44.2808 11.08C44.4008 11.4267 44.4874 11.82 44.5408 12.26C44.6074 12.6867 44.6408 13.14 44.6408 13.62V19.5H43.3408V14.14C43.3408 13.46 43.3074 12.8733 43.2408 12.38C43.1874 11.8733 43.0674 11.46 42.8808 11.14C42.6941 10.8067 42.4274 10.56 42.0808 10.4C41.7474 10.2267 41.3008 10.14 40.7408 10.14C40.1141 10.14 39.5808 10.1733 39.1408 10.24C38.7141 10.3067 38.4408 10.3667 38.3208 10.42V19.5H37.0208V9.52ZM55.5864 17.64C55.7064 17.7333 55.8531 17.8333 56.0264 17.94C56.2131 18.0467 56.4264 18.1467 56.6664 18.24C56.9064 18.3333 57.1664 18.4133 57.4464 18.48C57.7264 18.5333 58.0197 18.56 58.3264 18.56C58.9664 18.56 59.4997 18.4533 59.9264 18.24C60.3664 18.0133 60.7197 17.7133 60.9864 17.34C61.2531 16.9533 61.4464 16.5067 61.5664 16C61.6864 15.48 61.7464 14.9333 61.7464 14.36C61.7464 13 61.4064 11.96 60.7264 11.24C60.0464 10.5067 59.1464 10.14 58.0264 10.14C57.3864 10.14 56.8664 10.1733 56.4664 10.24C56.0797 10.2933 55.7864 10.3533 55.5864 10.42V17.64ZM55.5864 23.2H54.2864V9.52C54.6731 9.38667 55.1664 9.26 55.7664 9.14C56.3664 9.02 57.1264 8.96 58.0464 8.96C58.8064 8.96 59.4931 9.08667 60.1064 9.34C60.7331 9.58 61.2664 9.93333 61.7064 10.4C62.1597 10.8667 62.5064 11.4333 62.7464 12.1C62.9997 12.7667 63.1264 13.52 63.1264 14.36C63.1264 15.1467 63.0197 15.8733 62.8064 16.54C62.6064 17.1933 62.3064 17.76 61.9064 18.24C61.5064 18.7067 61.0131 19.0733 60.4264 19.34C59.8531 19.6067 59.1931 19.74 58.4464 19.74C57.7664 19.74 57.1731 19.6467 56.6664 19.46C56.1731 19.26 55.8131 19.0733 55.5864 18.9V23.2ZM68.5666 19.68C68.1266 19.6667 67.7399 19.6067 67.4066 19.5C67.0866 19.4067 66.8132 19.26 66.5866 19.06C66.3732 18.8467 66.2066 18.58 66.0866 18.26C65.9799 17.9267 65.9266 17.5133 65.9266 17.02V4.22L67.2266 3.98V16.98C67.2266 17.3 67.2532 17.56 67.3066 17.76C67.3732 17.9467 67.4666 18.1 67.5866 18.22C67.7066 18.3267 67.8599 18.4067 68.0466 18.46C68.2466 18.5133 68.4799 18.56 68.7466 18.6L68.5666 19.68ZM70.4242 14.32C70.4242 13.4133 70.5509 12.6267 70.8042 11.96C71.0709 11.28 71.4109 10.7133 71.8242 10.26C72.2509 9.80667 72.7309 9.47333 73.2642 9.26C73.8109 9.03333 74.3709 8.92 74.9442 8.92C76.2109 8.92 77.2176 9.33333 77.9642 10.16C78.7242 10.9867 79.1042 12.26 79.1042 13.98C79.1042 14.0867 79.0976 14.1933 79.0842 14.3C79.0842 14.4067 79.0776 14.5067 79.0642 14.6H71.8042C71.8442 15.8667 72.1576 16.84 72.7442 17.52C73.3309 18.2 74.2642 18.54 75.5442 18.54C76.2509 18.54 76.8109 18.4733 77.2242 18.34C77.6376 18.2067 77.9376 18.0933 78.1242 18L78.3642 19.12C78.1776 19.2267 77.8242 19.3533 77.3042 19.5C76.7976 19.6467 76.1976 19.72 75.5042 19.72C74.5976 19.72 73.8242 19.5867 73.1842 19.32C72.5442 19.0533 72.0176 18.68 71.6042 18.2C71.1909 17.72 70.8909 17.1533 70.7042 16.5C70.5176 15.8333 70.4242 15.1067 70.4242 14.32ZM77.7642 13.5C77.7376 12.42 77.4842 11.58 77.0042 10.98C76.5242 10.38 75.8442 10.08 74.9642 10.08C74.4976 10.08 74.0776 10.1733 73.7042 10.36C73.3442 10.5467 73.0242 10.8 72.7442 11.12C72.4776 11.4267 72.2642 11.7867 72.1042 12.2C71.9576 12.6133 71.8709 13.0467 71.8442 13.5H77.7642Z" fill="#333333"/>
<rect x="86.5" y="4" width="31" height="16" rx="8" stroke="#333333"/>
<circle cx="131.5" cy="12" r="8" stroke="#333333"/>
</svg>
